<mxfile host="app.diagrams.net" modified="2020-04-03T10:42:38.538Z" agent="Mozilla/5.0 (Windows NT 10.0; WOW64) AppleWebKit/537.36 (KHTML, like Gecko) Chrome/79.0.3945.130 Safari/537.36" etag="WxDGjR1ajkqMABmdzIlv" version="12.9.3" type="github">
  <diagram id="prtHgNgQTEPvFCAcTncT" name="Page-1">
    <mxGraphModel dx="1422" dy="794" grid="1" gridSize="10" guides="1" tooltips="1" connect="1" arrows="1" fold="1" page="1" pageScale="1" pageWidth="827" pageHeight="1169" math="0" shadow="0">
      <root>
        <mxCell id="0" />
        <mxCell id="1" parent="0" />
        <mxCell id="9dVeudItoOR_WCdGXJyK-11" value="产品规划" style="swimlane;html=1;startSize=29;horizontal=0;" parent="1" vertex="1">
          <mxGeometry x="30" y="230" width="450" height="140" as="geometry" />
        </mxCell>
        <mxCell id="9dVeudItoOR_WCdGXJyK-12" value="" style="edgeStyle=orthogonalEdgeStyle;rounded=0;orthogonalLoop=1;jettySize=auto;html=1;" parent="9dVeudItoOR_WCdGXJyK-11" source="9dVeudItoOR_WCdGXJyK-13" target="9dVeudItoOR_WCdGXJyK-14" edge="1">
          <mxGeometry relative="1" as="geometry" />
        </mxCell>
        <mxCell id="9dVeudItoOR_WCdGXJyK-13" value="开始" style="ellipse;whiteSpace=wrap;html=1;" parent="9dVeudItoOR_WCdGXJyK-11" vertex="1">
          <mxGeometry x="70" y="40" width="40" height="40" as="geometry" />
        </mxCell>
        <mxCell id="9dVeudItoOR_WCdGXJyK-32" value="" style="edgeStyle=orthogonalEdgeStyle;rounded=0;orthogonalLoop=1;jettySize=auto;html=1;" parent="9dVeudItoOR_WCdGXJyK-11" source="9dVeudItoOR_WCdGXJyK-14" target="9dVeudItoOR_WCdGXJyK-16" edge="1">
          <mxGeometry relative="1" as="geometry" />
        </mxCell>
        <mxCell id="9dVeudItoOR_WCdGXJyK-14" value="项目储备" style="rounded=0;whiteSpace=wrap;html=1;fontFamily=Helvetica;fontSize=12;fontColor=#000000;align=center;" parent="9dVeudItoOR_WCdGXJyK-11" vertex="1">
          <mxGeometry x="170" y="30" width="80" height="60" as="geometry" />
        </mxCell>
        <mxCell id="9dVeudItoOR_WCdGXJyK-16" value="新产品可研及规划" style="rounded=0;whiteSpace=wrap;html=1;fontFamily=Helvetica;fontSize=12;fontColor=#000000;align=center;" parent="9dVeudItoOR_WCdGXJyK-11" vertex="1">
          <mxGeometry x="317" y="30" width="80" height="60" as="geometry" />
        </mxCell>
        <mxCell id="9dVeudItoOR_WCdGXJyK-18" value="项目立项" style="swimlane;html=1;startSize=29;horizontal=0;" parent="1" vertex="1">
          <mxGeometry x="30" y="370" width="450" height="120" as="geometry" />
        </mxCell>
        <mxCell id="9dVeudItoOR_WCdGXJyK-20" value="立项" style="rounded=0;whiteSpace=wrap;html=1;fontFamily=Helvetica;fontSize=12;fontColor=#000000;align=center;" parent="9dVeudItoOR_WCdGXJyK-18" vertex="1">
          <mxGeometry x="317" y="30" width="80" height="60" as="geometry" />
        </mxCell>
        <mxCell id="9dVeudItoOR_WCdGXJyK-22" value="迭代开发" style="swimlane;html=1;startSize=29;horizontal=0;" parent="1" vertex="1">
          <mxGeometry x="30" y="490" width="450" height="180" as="geometry" />
        </mxCell>
        <mxCell id="11ZdrPG66ZnT8RiqG7gd-2" value="研发过程" style="rounded=0;whiteSpace=wrap;html=1;" vertex="1" parent="9dVeudItoOR_WCdGXJyK-22">
          <mxGeometry x="317" y="50" width="80" height="60" as="geometry" />
        </mxCell>
        <mxCell id="9dVeudItoOR_WCdGXJyK-27" value="项目结项" style="swimlane;html=1;startSize=29;horizontal=0;" parent="1" vertex="1">
          <mxGeometry x="30" y="670" width="450" height="120" as="geometry" />
        </mxCell>
        <mxCell id="11ZdrPG66ZnT8RiqG7gd-7" value="" style="edgeStyle=orthogonalEdgeStyle;rounded=0;orthogonalLoop=1;jettySize=auto;html=1;entryX=1;entryY=0.5;entryDx=0;entryDy=0;" edge="1" parent="9dVeudItoOR_WCdGXJyK-27" source="9dVeudItoOR_WCdGXJyK-29" target="9dVeudItoOR_WCdGXJyK-42">
          <mxGeometry relative="1" as="geometry">
            <mxPoint x="280" y="60" as="targetPoint" />
          </mxGeometry>
        </mxCell>
        <mxCell id="9dVeudItoOR_WCdGXJyK-29" value="结项" style="rounded=0;whiteSpace=wrap;html=1;fontFamily=Helvetica;fontSize=12;fontColor=#000000;align=center;" parent="9dVeudItoOR_WCdGXJyK-27" vertex="1">
          <mxGeometry x="317" y="30" width="80" height="60" as="geometry" />
        </mxCell>
        <mxCell id="9dVeudItoOR_WCdGXJyK-42" value="结束" style="ellipse;whiteSpace=wrap;html=1;" parent="9dVeudItoOR_WCdGXJyK-27" vertex="1">
          <mxGeometry x="70" y="40" width="40" height="40" as="geometry" />
        </mxCell>
        <mxCell id="9dVeudItoOR_WCdGXJyK-36" value="" style="edgeStyle=orthogonalEdgeStyle;rounded=0;orthogonalLoop=1;jettySize=auto;html=1;exitX=0.5;exitY=1;exitDx=0;exitDy=0;" parent="1" source="9dVeudItoOR_WCdGXJyK-16" target="9dVeudItoOR_WCdGXJyK-20" edge="1">
          <mxGeometry relative="1" as="geometry">
            <mxPoint x="387" y="310" as="sourcePoint" />
          </mxGeometry>
        </mxCell>
        <mxCell id="11ZdrPG66ZnT8RiqG7gd-3" value="" style="edgeStyle=orthogonalEdgeStyle;rounded=0;orthogonalLoop=1;jettySize=auto;html=1;" edge="1" parent="1" source="9dVeudItoOR_WCdGXJyK-20" target="11ZdrPG66ZnT8RiqG7gd-2">
          <mxGeometry relative="1" as="geometry" />
        </mxCell>
        <mxCell id="11ZdrPG66ZnT8RiqG7gd-5" value="" style="edgeStyle=orthogonalEdgeStyle;rounded=0;orthogonalLoop=1;jettySize=auto;html=1;entryX=0.5;entryY=0;entryDx=0;entryDy=0;" edge="1" parent="1" source="11ZdrPG66ZnT8RiqG7gd-2" target="9dVeudItoOR_WCdGXJyK-29">
          <mxGeometry relative="1" as="geometry">
            <mxPoint x="387" y="680" as="targetPoint" />
          </mxGeometry>
        </mxCell>
      </root>
    </mxGraphModel>
  </diagram>
</mxfile>
